<svg aria-hidden="true" style="position: absolute; width: 0; height: 0; overflow: hidden;" version="1.1" xmlns="http://www.w3.org/2000/svg" xmlns:xlink="http://www.w3.org/1999/xlink">
  <defs>
    <symbol id="howitworks1" viewBox="0 0 32 32">
      <path fill="#7a3145" style="fill: var(--color1, #7a3145); stroke: var(--color2, #d4bfc4)" stroke="#d4bfc4" stroke-linejoin="miter" stroke-linecap="butt" stroke-miterlimit="4" stroke-width="3.0769" d="M30.462 16c0 7.987-6.475 14.462-14.462 14.462s-14.462-6.475-14.462-14.462c0-7.987 6.475-14.462 14.462-14.462s14.462 6.475 14.462 14.462z"></path>
      <path fill="#fbfbfb" style="fill: var(--color3, #fbfbfb)" d="M17.217 12.249v8.059h-1.45v-6.636h-0.049l-1.882 1.206v-1.342l2.001-1.287h1.38z"></path>
    </symbol>
    <symbol id="howitworks2" viewBox="0 0 32 32">
      <path fill="#7a3145" style="fill: var(--color1, #7a3145); stroke: var(--color2, #d4bfc4)" stroke="#d4bfc4" stroke-linejoin="miter" stroke-linecap="butt" stroke-miterlimit="4" stroke-width="3.0769" d="M30.462 16c0 7.987-6.475 14.462-14.462 14.462s-14.462-6.475-14.462-14.462c0-7.987 6.475-14.462 14.462-14.462s14.462 6.475 14.462 14.462z"></path>
      <path fill="#fbfbfb" style="fill: var(--color3, #fbfbfb)" d="M12.81 20.308v-1.049l2.802-2.748c0.263-0.271 0.483-0.51 0.66-0.719 0.18-0.209 0.316-0.411 0.406-0.606 0.090-0.198 0.135-0.409 0.135-0.633 0-0.252-0.058-0.47-0.174-0.654-0.116-0.183-0.277-0.327-0.469-0.419l-0.007-0.003c-0.191-0.092-0.415-0.146-0.652-0.146-0.011 0-0.021 0-0.031 0l0.002-0c-0.266 0-0.499 0.054-0.698 0.162-0.197 0.108-0.355 0.264-0.462 0.454l-0.003 0.006c-0.108 0.198-0.162 0.434-0.162 0.708h-1.385c0-0.508 0.115-0.95 0.346-1.325 0.237-0.378 0.565-0.679 0.955-0.876l0.014-0.006c0.411-0.209 0.881-0.314 1.412-0.314 0.544 0 1.020 0.102 1.428 0.303s0.725 0.479 0.952 0.833c0.227 0.35 0.34 0.75 0.34 1.201 0 0.303-0.057 0.601-0.172 0.892-0.116 0.289-0.32 0.612-0.612 0.969-0.289 0.353-0.694 0.78-1.217 1.282l-1.385 1.412v0.060h3.505v1.217h-5.528z"></path>
    </symbol>
    <symbol id="howitworks3" viewBox="0 0 32 32">
      <path fill="#7a3145" style="fill: var(--color1, #7a3145); stroke: var(--color2, #d4bfc4)" stroke="#d4bfc4" stroke-linejoin="miter" stroke-linecap="butt" stroke-miterlimit="4" stroke-width="3.0769" d="M30.462 16c0 7.987-6.475 14.462-14.462 14.462s-14.462-6.475-14.462-14.462c0-7.987 6.475-14.462 14.462-14.462s14.462 6.475 14.462 14.462z"></path>
      <path fill="#fbfbfb" style="fill: var(--color3, #fbfbfb)" d="M15.705 20.416c-0.566 0-1.070-0.096-1.51-0.287-0.44-0.194-0.788-0.465-1.044-0.811-0.252-0.346-0.384-0.746-0.394-1.201h1.471c0.011 0.22 0.081 0.411 0.211 0.574 0.134 0.159 0.31 0.283 0.53 0.374 0.22 0.086 0.465 0.129 0.735 0.129 0.289 0 0.543-0.050 0.763-0.151 0.223-0.105 0.398-0.245 0.524-0.422 0.126-0.18 0.19-0.388 0.19-0.622 0-0.246-0.065-0.462-0.195-0.65-0.126-0.187-0.31-0.334-0.551-0.438s-0.532-0.156-0.871-0.156h-0.719v-1.125h0.719c0.274 0 0.517-0.049 0.73-0.146s0.379-0.233 0.498-0.406c0.112-0.167 0.179-0.373 0.179-0.594 0-0.008-0-0.016-0-0.024l0 0.001c0-0.228-0.053-0.425-0.158-0.595s-0.251-0.306-0.427-0.392l-0.006-0.003c-0.187-0.094-0.407-0.141-0.66-0.141-0.245 0-0.474 0.045-0.687 0.135-0.209 0.086-0.379 0.211-0.508 0.373-0.127 0.162-0.193 0.357-0.201 0.585h-1.401c0.007-0.451 0.135-0.847 0.384-1.19 0.252-0.343 0.59-0.609 1.011-0.8 0.422-0.195 0.895-0.293 1.417-0.293 0.534 0 0.999 0.102 1.396 0.303 0.4 0.198 0.708 0.467 0.925 0.806 0.22 0.338 0.33 0.712 0.33 1.119 0 0.454-0.134 0.834-0.4 1.141s-0.618 0.508-1.055 0.606v0.059c0.562 0.080 0.993 0.289 1.292 0.628 0.303 0.338 0.455 0.761 0.455 1.265 0 0.451-0.129 0.855-0.384 1.212-0.256 0.353-0.608 0.63-1.055 0.833s-0.959 0.303-1.536 0.303z"></path>
    </symbol>
    <symbol id="burgerclose" viewBox="0 0 32 32">
      <path fill="none" stroke-linejoin="round" stroke-linecap="round" stroke-miterlimit="4" stroke-width="3" d="M24 8l-16 16M8 8l16 16"></path>
    </symbol>
    <symbol id="burgeropen" viewBox="0 0 32 32">
      <path fill="none" stroke="#fbfbfb" style="stroke: var(--color3, #fbfbfb)" stroke-linejoin="round" stroke-linecap="round" stroke-miterlimit="4" stroke-width="3" d="M5.333 8h21.334M5.333 16h10.667M5.333 24h21.334"></path>
    </symbol>
    <symbol id="logo" viewBox="0 0 395 32">
      <path fill="#fbfbfb" style="fill: var(--color3, #fbfbfb)" d="M16.803 32c-10.101 0-16.803-6.272-16.803-16.043 0-9.557 6.605-15.957 16.563-15.957 8.379 0 14.267 4.395 15.128 11.008h-6.944c-0.667-3.797-3.875-5.931-8.187-5.931-6.032 0-9.621 4.352-9.621 10.88 0 7.168 4.021 10.965 9.861 10.965 5.075 0 8.331-2.56 8.667-6.4v-0.427h-9.333v-4.779h15.797v3.925c-0.288 7.637-6.32 12.757-15.131 12.757zM36.115 31.573v-31.147h16.8c8.571 0 11.971 3.712 11.971 9.088 0 4.821-3.829 7.125-8.283 7.68v0.128c2.872 0.64 4.165 2.048 5.36 4.821 1.533 3.499 1.773 7.68 3.736 9.173v0.256h-7.659c-1.627-1.451-2.011-6.016-2.872-8.789-0.861-2.859-2.731-3.2-6.224-3.2h-6.128v11.989h-6.701zM42.816 14.635h9.384c3.925 0 5.744-2.048 5.744-4.693 0-2.901-2.251-4.565-5.744-4.565h-9.384v9.259zM69.336 31.573v-31.147h23.888v4.949h-17.187v7.424h15.512v4.949h-15.512v8.747h17.424v5.077h-24.125zM98.117 31.573v-31.147h23.885v4.949h-17.184v7.424h15.509v4.949h-15.509v8.747h17.424v5.077h-24.125zM126.896 31.573v-31.147h8.139l11.584 17.195c3.544 5.205 3.973 6.912 3.973 6.912h0.144l-0.096-24.107h6.701v31.147h-8.187l-12.011-17.707c-2.728-4.011-3.448-6.443-3.448-6.443h-0.096v24.149h-6.701zM162.384 31.573v-6.315h6.987v6.315h-6.987zM174.405 31.573v-31.147h6.701v12.459h16.037v-12.459h6.701v31.147h-6.699v-13.739h-16.037v13.739h-6.701zM206.712 31.573l13.403-31.147h7.277l13.595 31.147h-7.181l-2.824-7.168h-14.507l-2.821 7.168h-6.941zM218.392 19.456h10.675l-3.112-7.68c-2.155-5.675-2.203-6.699-2.203-6.699h-0.096s0 1.024-2.152 6.699l-3.112 7.68zM243.84 31.573v-31.147h16.803c8.571 0 11.968 3.712 11.968 9.088 0 4.821-3.829 7.125-8.28 7.68v0.128c2.872 0.64 4.163 2.048 5.36 4.821 1.533 3.499 1.771 7.68 3.733 9.173v0.256h-7.659c-1.627-1.451-2.011-6.016-2.872-8.789-0.861-2.859-2.728-3.2-6.224-3.2h-6.125v11.989h-6.704zM250.544 14.635h9.381c3.925 0 5.744-2.048 5.744-4.693 0-2.901-2.251-4.565-5.744-4.565h-9.381v9.259zM284.168 31.573l-12.829-31.147h7.181s6.941 17.451 7.659 19.584c1.149 3.413 1.675 5.163 1.675 5.163h0.096c-0.048 0 0.48-1.749 1.675-5.163 0.768-2.133 7.421-19.584 7.421-19.584h6.941l-12.352 31.147h-7.467zM306.731 31.573v-31.147h23.888v4.949h-17.187v7.424h15.512v4.949h-15.512v8.747h17.427v5.077h-24.128zM347.496 32c-8.904 0-14.267-4.309-14.267-10.709h7.661c-0.096 3.627 2.584 5.632 6.605 5.632 4.261 0 6.269-1.493 6.269-3.712s-1.723-3.157-7.851-4.651c-5.6-1.365-11.728-2.987-11.728-9.387 0-5.077 4.979-9.173 12.829-9.173 8.091 0 13.261 4.053 13.261 9.771h-7.421c-0.048-3.029-2.344-4.693-5.84-4.693-3.397 0-5.648 1.536-5.648 3.584 0 2.432 1.867 3.2 6.749 4.437 7.229 1.792 13.069 2.517 13.069 9.472 0 5.589-5.696 9.429-13.691 9.429zM372.099 31.573v-26.069h-10.579v-5.077h27.813v5.077h-10.531v26.069h-6.704z"></path>
    </symbol>
    <symbol id="boxlogo" viewBox="0 0 32 32">
      <path fill="#fbfbfb" style="fill: var(--color3, #fbfbfb)" d="M29.082 0.314h-4.010c-0.006-0-0.013-0-0.020-0-1.218 0-2.206 0.98-2.22 2.195v3.929c0.014 1.216 1.002 2.196 2.22 2.196 0.007 0 0.014-0 0.021-0h4.009c0.006 0 0.013 0 0.020 0 1.218 0 2.206-0.98 2.22-2.195v-3.929c-0.014-1.216-1.002-2.196-2.22-2.196-0.007 0-0.014 0-0.021 0h0.001zM6.73 23.040h-4.318c-1.332 0-2.412 0.984-2.412 2.196v3.928c0 1.214 1.080 2.196 2.412 2.196h4.32c1.33 0 2.41-0.982 2.41-2.196v-3.928c0-1.214-1.080-2.196-2.412-2.196zM6.25 11.58h-4.010c-1.238 0-2.24 0.986-2.24 2.2v3.928c0.013 1.216 1.002 2.196 2.22 2.196 0.007 0 0.014-0 0.021-0h4.009c0.006 0 0.013 0 0.020 0 1.218 0 2.206-0.98 2.22-2.195v-3.929c0-1.214-1.004-2.196-2.24-2.196zM17.766 22.98h-4.010c-1.236 0-2.24 0.98-2.24 2.194v3.928c0.014 1.216 1.002 2.196 2.22 2.196 0.007 0 0.014-0 0.021-0h4.009c0.006 0 0.013 0 0.020 0 1.218 0 2.206-0.98 2.22-2.195v-3.929c-0.014-1.216-1.002-2.196-2.22-2.196-0.007 0-0.014 0-0.021 0h0.001zM6.25 0.086h-4.010c-1.238 0-2.24 0.984-2.24 2.196v3.928c0.013 1.216 1.002 2.196 2.22 2.196 0.007 0 0.014-0 0.021-0h4.009c0.006 0 0.013 0 0.020 0 1.218 0 2.206-0.98 2.22-2.195v-3.929c0-1.212-1.004-2.196-2.24-2.196zM18.076 11.698h-4.010c-1.236 0-2.24 0.982-2.24 2.194v3.93c0.014 1.216 1.002 2.196 2.22 2.196 0.007 0 0.014-0 0.021-0h4.009c1.238 0 2.24-0.984 2.24-2.196v-3.93c0-1.212-1.002-2.194-2.24-2.194zM29.334 22.98h-4.010c-1.238 0-2.24 0.98-2.24 2.194v3.928c0.014 1.216 1.002 2.196 2.22 2.196 0.007 0 0.014-0 0.021-0h4.009c0.006 0 0.013 0 0.020 0 1.218 0 2.206-0.98 2.22-2.195v-3.929c0-1.214-1.004-2.196-2.24-2.196zM17.59 0.224h-4.008c-1.238 0-2.24 0.982-2.24 2.196v3.928c0.014 1.216 1.002 2.196 2.22 2.196 0.007 0 0.014-0 0.021-0h4.007c0.006 0 0.013 0 0.020 0 1.218 0 2.206-0.98 2.22-2.195v-3.929c0-1.214-1.002-2.196-2.24-2.196zM29.044 11.926h-4.010c-1.236 0-2.24 0.982-2.24 2.196v3.928c0.014 1.216 1.002 2.196 2.22 2.196 0.007 0 0.014-0 0.021-0h4.009c0.006 0 0.013 0 0.020 0 1.218 0 2.206-0.98 2.22-2.195v-3.929c0-1.214-1.004-2.196-2.24-2.196z"></path>
    </symbol>
  </defs>
</svg>